<svg width="180" height="36" viewBox="0 0 180 36" fill="none" xmlns="http://www.w3.org/2000/svg">
<rect x="4.5" y="4.5" width="27" height="27" rx="3.375" fill="#0B1F3B"/>
<path d="M15.1875 15.1475L20.7725 9.5625H26.4375V9.60254L20.8525 15.1875H15.2275L20.8125 20.7725V20.8125H20.8525L26.4375 26.3975V26.4375H20.7725L15.1875 20.8525V26.4375H9.5625V9.5625H15.1875V15.1475ZM9.60254 20.8125H15.1875V15.2275L9.60254 20.8125Z" fill="white"/>
<g clip-path="url(#clip0_9_540)">
<path d="M39.152 29V7.18182H43.1044V17.2067H43.3707L51.8828 7.18182H56.7088L48.2713 16.9723L56.7834 29H52.032L45.5227 19.6463L43.1044 22.5014V29H39.152ZM62.8408 19.4119V29H58.9843V7.18182H62.7556V15.4169H62.9473C63.3309 14.4936 63.9239 13.7656 64.7265 13.233C65.5361 12.6932 66.5659 12.4233 67.8159 12.4233C68.9523 12.4233 69.9431 12.6612 70.7882 13.1371C71.6334 13.6129 72.2868 14.3089 72.7485 15.2251C73.2172 16.1413 73.4516 17.2599 73.4516 18.581V29H69.5951V19.1776C69.5951 18.0767 69.311 17.2209 68.7428 16.6101C68.1817 15.9922 67.3934 15.6832 66.3777 15.6832C65.6959 15.6832 65.0851 15.8324 64.5453 16.1307C64.0127 16.4219 63.5936 16.8445 63.2882 17.3984C62.99 17.9524 62.8408 18.6236 62.8408 19.4119ZM81.7915 29.3303C80.7546 29.3303 79.8206 29.1456 78.9897 28.7763C78.1658 28.3999 77.5124 27.8459 77.0294 27.1143C76.5536 26.3828 76.3157 25.4808 76.3157 24.4084C76.3157 23.4851 76.4861 22.7216 76.827 22.1179C77.1679 21.5142 77.6331 21.0312 78.2226 20.669C78.8121 20.3068 79.4762 20.0334 80.2148 19.8487C80.9605 19.657 81.7311 19.5185 82.5266 19.4332C83.4854 19.3338 84.2631 19.245 84.8597 19.1669C85.4563 19.0817 85.8895 18.9538 86.1594 18.7834C86.4364 18.6058 86.5749 18.3324 86.5749 17.9631V17.8991C86.5749 17.0966 86.337 16.4751 85.8611 16.0348C85.3853 15.5945 84.6999 15.3743 83.805 15.3743C82.8604 15.3743 82.1111 15.5803 81.5571 15.9922C81.0103 16.4041 80.6409 16.8906 80.4492 17.4517L76.8483 16.9403C77.1324 15.946 77.6012 15.1151 78.2546 14.4474C78.908 13.7727 79.707 13.2685 80.6516 12.9347C81.5962 12.5938 82.6402 12.4233 83.7837 12.4233C84.5721 12.4233 85.3569 12.5156 86.1381 12.7003C86.9194 12.8849 87.6331 13.1903 88.2794 13.6165C88.9257 14.0355 89.4442 14.6072 89.8348 15.3317C90.2326 16.0561 90.4314 16.9616 90.4314 18.0483V29H86.724V26.7521H86.5962C86.3618 27.2067 86.0316 27.6328 85.6054 28.0305C85.1864 28.4212 84.6573 28.7372 84.0181 28.9787C83.386 29.2131 82.6438 29.3303 81.7915 29.3303ZM82.7929 26.4964C83.5671 26.4964 84.2382 26.3437 84.8064 26.0384C85.3746 25.7259 85.8114 25.3139 86.1168 24.8026C86.4293 24.2912 86.5855 23.7337 86.5855 23.13V21.2017C86.4648 21.3011 86.2588 21.3935 85.9677 21.4787C85.6836 21.5639 85.364 21.6385 85.0088 21.7024C84.6537 21.7663 84.3022 21.8232 83.9542 21.8729C83.6061 21.9226 83.3043 21.9652 83.0486 22.0007C82.4733 22.0788 81.9584 22.2067 81.5039 22.3842C81.0493 22.5618 80.6907 22.8104 80.4279 23.13C80.1651 23.4425 80.0337 23.8473 80.0337 24.3445C80.0337 25.0547 80.2929 25.5909 80.8114 25.9531C81.3299 26.3153 81.9904 26.4964 82.7929 26.4964ZM94.0093 29V12.6364H97.7486V15.3636H97.9191C98.2174 14.419 98.7287 13.6911 99.4532 13.1797C100.185 12.6612 101.019 12.402 101.957 12.402C102.17 12.402 102.408 12.4126 102.67 12.4339C102.94 12.4482 103.164 12.473 103.342 12.5085V16.0561C103.178 15.9993 102.919 15.9496 102.564 15.907C102.216 15.8572 101.879 15.8324 101.552 15.8324C100.849 15.8324 100.217 15.9851 99.6556 16.2905C99.1016 16.5888 98.6648 17.0043 98.3452 17.5369C98.0256 18.0696 97.8658 18.6839 97.8658 19.38V29H94.0093ZM112.174 29.3196C110.534 29.3196 109.117 28.9787 107.924 28.2969C106.738 27.608 105.825 26.6349 105.186 25.3778C104.546 24.1136 104.227 22.6257 104.227 20.9141C104.227 19.2308 104.546 17.7536 105.186 16.4822C105.832 15.2038 106.734 14.2095 107.892 13.4993C109.049 12.782 110.409 12.4233 111.972 12.4233C112.98 12.4233 113.932 12.5866 114.827 12.9134C115.729 13.233 116.524 13.7301 117.213 14.4048C117.909 15.0795 118.456 15.9389 118.854 16.983C119.252 18.0199 119.451 19.2557 119.451 20.6903V21.8729H106.038V19.2734H115.754C115.747 18.5348 115.587 17.8778 115.274 17.3026C114.962 16.7202 114.525 16.2621 113.964 15.9283C113.41 15.5945 112.764 15.4276 112.025 15.4276C111.237 15.4276 110.544 15.6193 109.948 16.0028C109.351 16.3793 108.886 16.8764 108.552 17.4943C108.225 18.1051 108.059 18.7763 108.051 19.5078V21.777C108.051 22.7287 108.225 23.5455 108.573 24.2273C108.921 24.902 109.408 25.4205 110.033 25.7827C110.658 26.1378 111.389 26.3153 112.228 26.3153C112.789 26.3153 113.296 26.2372 113.751 26.081C114.206 25.9176 114.6 25.6797 114.934 25.3672C115.267 25.0547 115.519 24.6676 115.69 24.206L119.291 24.6108C119.063 25.5625 118.63 26.3935 117.991 27.1037C117.359 27.8068 116.549 28.3537 115.562 28.7443C114.575 29.1278 113.446 29.3196 112.174 29.3196ZM129.725 29V7.18182H133.677V25.6868H143.287V29H129.725ZM150.956 29.3303C149.919 29.3303 148.985 29.1456 148.154 28.7763C147.33 28.3999 146.676 27.8459 146.194 27.1143C145.718 26.3828 145.48 25.4808 145.48 24.4084C145.48 23.4851 145.65 22.7216 145.991 22.1179C146.332 21.5142 146.797 21.0312 147.387 20.669C147.976 20.3068 148.64 20.0334 149.379 19.8487C150.125 19.657 150.895 19.5185 151.691 19.4332C152.649 19.3338 153.427 19.245 154.024 19.1669C154.62 19.0817 155.054 18.9538 155.323 18.7834C155.6 18.6058 155.739 18.3324 155.739 17.9631V17.8991C155.739 17.0966 155.501 16.4751 155.025 16.0348C154.549 15.5945 153.864 15.3743 152.969 15.3743C152.024 15.3743 151.275 15.5803 150.721 15.9922C150.174 16.4041 149.805 16.8906 149.613 17.4517L146.012 16.9403C146.296 15.946 146.765 15.1151 147.419 14.4474C148.072 13.7727 148.871 13.2685 149.816 12.9347C150.76 12.5938 151.804 12.4233 152.948 12.4233C153.736 12.4233 154.521 12.5156 155.302 12.7003C156.083 12.8849 156.797 13.1903 157.444 13.6165C158.09 14.0355 158.608 14.6072 158.999 15.3317C159.397 16.0561 159.595 16.9616 159.595 18.0483V29H155.888V26.7521H155.76C155.526 27.2067 155.196 27.6328 154.769 28.0305C154.35 28.4212 153.821 28.7372 153.182 28.9787C152.55 29.2131 151.808 29.3303 150.956 29.3303ZM151.957 26.4964C152.731 26.4964 153.402 26.3437 153.97 26.0384C154.539 25.7259 154.975 25.3139 155.281 24.8026C155.593 24.2912 155.75 23.7337 155.75 23.13V21.2017C155.629 21.3011 155.423 21.3935 155.132 21.4787C154.848 21.5639 154.528 21.6385 154.173 21.7024C153.818 21.7663 153.466 21.8232 153.118 21.8729C152.77 21.9226 152.468 21.9652 152.213 22.0007C151.637 22.0788 151.122 22.2067 150.668 22.3842C150.213 22.5618 149.855 22.8104 149.592 23.13C149.329 23.4425 149.198 23.8473 149.198 24.3445C149.198 25.0547 149.457 25.5909 149.975 25.9531C150.494 26.3153 151.154 26.4964 151.957 26.4964ZM163.344 29V7.18182H167.2V15.3423H167.36C167.559 14.9446 167.84 14.522 168.202 14.0746C168.564 13.62 169.054 13.233 169.672 12.9134C170.29 12.5866 171.078 12.4233 172.037 12.4233C173.301 12.4233 174.441 12.7464 175.457 13.3928C176.479 14.032 177.289 14.9801 177.886 16.2372C178.489 17.4872 178.791 19.0213 178.791 20.8395C178.791 22.6364 178.496 24.1634 177.907 25.4205C177.318 26.6776 176.515 27.6364 175.499 28.2969C174.484 28.9574 173.333 29.2876 172.048 29.2876C171.11 29.2876 170.332 29.1314 169.715 28.8189C169.097 28.5064 168.599 28.13 168.223 27.6896C167.854 27.2422 167.566 26.8196 167.36 26.4219H167.136V29H163.344ZM167.126 20.8182C167.126 21.8764 167.275 22.8033 167.573 23.5987C167.879 24.3942 168.315 25.0156 168.884 25.4631C169.459 25.9034 170.155 26.1236 170.972 26.1236C171.824 26.1236 172.538 25.8963 173.113 25.4418C173.688 24.9801 174.121 24.3516 174.413 23.5561C174.711 22.7536 174.86 21.8409 174.86 20.8182C174.86 19.8026 174.715 18.9006 174.423 18.1122C174.132 17.3239 173.699 16.706 173.124 16.2585C172.548 15.8111 171.831 15.5874 170.972 15.5874C170.148 15.5874 169.448 15.804 168.873 16.2372C168.298 16.6705 167.861 17.2777 167.563 18.0589C167.271 18.8402 167.126 19.7599 167.126 20.8182Z" fill="#0B1F3B"/>
</g>
<defs>
<clipPath id="clip0_9_540">
<rect width="144" height="36" fill="white" transform="translate(36)"/>
</clipPath>
</defs>
</svg>
